<mxfile host="65bd71144e">
    <diagram name="Page-1" id="16KSKgsb6A-caUSwm22u">
        <mxGraphModel dx="666" dy="923" grid="1" gridSize="10" guides="1" tooltips="1" connect="1" arrows="1" fold="1" page="1" pageScale="1" pageWidth="1100" pageHeight="850" math="0" shadow="0">
            <root>
                <mxCell id="0"/>
                <mxCell id="1" parent="0"/>
                <mxCell id="CQLGU1wXUIRpROZoo12C-10" value="Click" style="rounded=0;orthogonalLoop=1;jettySize=auto;html=1;startArrow=classic;startFill=1;exitX=0.297;exitY=1.003;exitDx=0;exitDy=0;exitPerimeter=0;fillColor=#60a917;strokeColor=#2D7600;strokeWidth=3;labelBackgroundColor=#FFFF00;fontColor=#000000;" parent="1" source="CQLGU1wXUIRpROZoo12C-7" target="CQLGU1wXUIRpROZoo12C-9" edge="1">
                    <mxGeometry relative="1" as="geometry"/>
                </mxCell>
                <object label="Mouse Over" hedietLinkedDataV1_path="../../../include/BOUNDING_BOX/BOUNDING_BOX.BAS" hedietLinkedDataV1_start_col_x-num="0" hedietLinkedDataV1_start_line_x-num="168" hedietLinkedDataV1_end_col_x-num="28" hedietLinkedDataV1_end_line_x-num="170" id="CQLGU1wXUIRpROZoo12C-12">
                    <mxCell style="rounded=0;orthogonalLoop=1;jettySize=auto;html=1;startArrow=classic;startFill=1;exitX=0.65;exitY=0.99;exitDx=0;exitDy=0;exitPerimeter=0;fillColor=#60a917;strokeColor=#2D7600;strokeWidth=3;labelBackgroundColor=#FFFF00;fontColor=#000000;" parent="1" source="CQLGU1wXUIRpROZoo12C-7" target="CQLGU1wXUIRpROZoo12C-11" edge="1">
                        <mxGeometry x="0.0004" relative="1" as="geometry">
                            <mxPoint x="600" y="251" as="sourcePoint"/>
                            <mxPoint as="offset"/>
                        </mxGeometry>
                    </mxCell>
                </object>
                <mxCell id="CQLGU1wXUIRpROZoo12C-21" value="" style="edgeStyle=orthogonalEdgeStyle;rounded=0;orthogonalLoop=1;jettySize=auto;html=1;startArrow=classic;startFill=1;endArrow=none;endFill=0;fillColor=#1ba1e2;strokeColor=#007FFF;strokeWidth=3;" parent="1" source="CQLGU1wXUIRpROZoo12C-7" target="CQLGU1wXUIRpROZoo12C-20" edge="1">
                    <mxGeometry x="0.0996" relative="1" as="geometry">
                        <mxPoint as="offset"/>
                    </mxGeometry>
                </mxCell>
                <object label="Deselected" hedietLinkedDataV1_path="../../../include/BOUNDING_BOX/BOUNDING_BOX.BAS" hedietLinkedDataV1_start_col_x-num="0" hedietLinkedDataV1_start_line_x-num="167" hedietLinkedDataV1_end_col_x-num="14" hedietLinkedDataV1_end_line_x-num="171" id="CQLGU1wXUIRpROZoo12C-7">
                    <mxCell style="rounded=0;whiteSpace=wrap;html=1;" parent="1" vertex="1">
                        <mxGeometry x="510" y="188" width="120" height="60" as="geometry"/>
                    </mxCell>
                </object>
                <object label="Drag" hedietLinkedDataV1_path="../../../include/BOUNDING_BOX/BOUNDING_BOX.BAS" hedietLinkedDataV1_start_col_x-num="0" hedietLinkedDataV1_start_line_x-num="111" hedietLinkedDataV1_end_col_x-num="0" hedietLinkedDataV1_end_line_x-num="137" id="CQLGU1wXUIRpROZoo12C-15">
                    <mxCell style="rounded=0;orthogonalLoop=1;jettySize=auto;html=1;startArrow=classic;startFill=1;fillColor=#60a917;strokeColor=#2D7600;strokeWidth=3;labelBackgroundColor=#FFFF00;fontColor=#000000;" parent="1" source="CQLGU1wXUIRpROZoo12C-9" target="CQLGU1wXUIRpROZoo12C-13" edge="1">
                        <mxGeometry relative="1" as="geometry"/>
                    </mxCell>
                </object>
                <mxCell id="CQLGU1wXUIRpROZoo12C-17" value="Mouse Over Edge" style="rounded=0;orthogonalLoop=1;jettySize=auto;html=1;startArrow=classic;startFill=1;fillColor=#60a917;strokeColor=#2D7600;strokeWidth=3;labelBackgroundColor=#FFFF00;fontColor=#000000;" parent="1" source="CQLGU1wXUIRpROZoo12C-9" edge="1">
                    <mxGeometry relative="1" as="geometry">
                        <mxPoint x="487.9141104294479" y="453" as="targetPoint"/>
                    </mxGeometry>
                </mxCell>
                <object label="Selected" hedietLinkedDataV1_path="../../../include/BOUNDING_BOX/BOUNDING_BOX.BAS" hedietLinkedDataV1_start_col_x-num="1" hedietLinkedDataV1_start_line_x-num="110" hedietLinkedDataV1_end_col_x-num="18" hedietLinkedDataV1_end_line_x-num="166" id="CQLGU1wXUIRpROZoo12C-9">
                    <mxCell style="rounded=0;whiteSpace=wrap;html=1;" parent="1" vertex="1">
                        <mxGeometry x="330" y="290" width="120" height="60" as="geometry"/>
                    </mxCell>
                </object>
                <object label="Over" hedietLinkedDataV1_path="../../../include/BOUNDING_BOX/BOUNDING_BOX.BAS" hedietLinkedDataV1_start_col_x-num="0" hedietLinkedDataV1_start_line_x-num="168" hedietLinkedDataV1_end_col_x-num="76" hedietLinkedDataV1_end_line_x-num="168" id="CQLGU1wXUIRpROZoo12C-11">
                    <mxCell style="rounded=0;whiteSpace=wrap;html=1;" parent="1" vertex="1">
                        <mxGeometry x="690" y="290" width="120" height="60" as="geometry"/>
                    </mxCell>
                </object>
                <mxCell id="CQLGU1wXUIRpROZoo12C-13" value="Moving" style="rounded=0;whiteSpace=wrap;html=1;" parent="1" vertex="1">
                    <mxGeometry x="210" y="453" width="120" height="60" as="geometry"/>
                </mxCell>
                <object label="Drag" hedietLinkedDataV1_path="../../../include/BOUNDING_BOX/BOUNDING_BOX.BAS" hedietLinkedDataV1_start_col_x-num="0" hedietLinkedDataV1_start_line_x-num="111" hedietLinkedDataV1_end_col_x-num="0" hedietLinkedDataV1_end_line_x-num="122" id="CQLGU1wXUIRpROZoo12C-24">
                    <mxCell style="rounded=0;orthogonalLoop=1;jettySize=auto;html=1;strokeWidth=3;fillColor=#60a917;strokeColor=#2D7600;startArrow=classic;startFill=1;fontColor=#000000;labelBackgroundColor=#FFFF00;" parent="1" source="CQLGU1wXUIRpROZoo12C-16" target="CQLGU1wXUIRpROZoo12C-23" edge="1">
                        <mxGeometry relative="1" as="geometry"/>
                    </mxCell>
                </object>
                <object label="Change Cursor" hedietLinkedDataV1_path="../../../include/BOUNDING_BOX/BOUNDING_BOX.BAS" hedietLinkedDataV1_start_col_x-num="0" hedietLinkedDataV1_start_line_x-num="138" hedietLinkedDataV1_end_col_x-num="18" hedietLinkedDataV1_end_line_x-num="166" id="CQLGU1wXUIRpROZoo12C-16">
                    <mxCell style="rounded=0;whiteSpace=wrap;html=1;shape=process;fixedSize=1;backgroundOutline=1;size=10;strokeColor=#007FFF;" parent="1" vertex="1">
                        <mxGeometry x="450" y="453" width="120" height="60" as="geometry"/>
                    </mxCell>
                </object>
                <object label="Click" hedietLinkedDataV1_path="../../../include/BOUNDING_BOX/BOUNDING_BOX.BAS" hedietLinkedDataV1_start_col_x-num="0" hedietLinkedDataV1_start_line_x-num="94" hedietLinkedDataV1_end_col_x-num="14" hedietLinkedDataV1_end_line_x-num="102" id="CQLGU1wXUIRpROZoo12C-18">
                    <mxCell style="rounded=0;orthogonalLoop=1;jettySize=auto;html=1;fillColor=#e51400;strokeColor=#B20000;strokeWidth=3;labelBackgroundColor=#FFFF00;fontColor=#000000;" parent="1" source="CQLGU1wXUIRpROZoo12C-11" target="CQLGU1wXUIRpROZoo12C-9" edge="1">
                        <mxGeometry relative="1" as="geometry">
                            <mxPoint x="769.04" y="248" as="sourcePoint"/>
                            <mxPoint x="629.9999999999998" y="322.6399999999999" as="targetPoint"/>
                        </mxGeometry>
                    </mxCell>
                </object>
                <object label="Init" hedietLinkedDataV1_path="../../../include/BOUNDING_BOX/BOUNDING_BOX.BAS" hedietLinkedDataV1_start_col_x-num="0" hedietLinkedDataV1_start_line_x-num="31" hedietLinkedDataV1_end_col_x-num="10" hedietLinkedDataV1_end_line_x-num="34" id="CQLGU1wXUIRpROZoo12C-20">
                    <mxCell style="ellipse;whiteSpace=wrap;html=1;rounded=0;strokeColor=#007FFF;" parent="1" vertex="1">
                        <mxGeometry x="530" y="70" width="80" height="80" as="geometry"/>
                    </mxCell>
                </object>
                <object label="Drag" hedietLinkedDataV1_path="../../../include/BOUNDING_BOX/BOUNDING_BOX.BAS" hedietLinkedDataV1_start_col_x-num="0" hedietLinkedDataV1_start_line_x-num="115" hedietLinkedDataV1_end_col_x-num="30" hedietLinkedDataV1_end_line_x-num="121" id="CQLGU1wXUIRpROZoo12C-29">
                    <mxCell style="edgeStyle=orthogonalEdgeStyle;rounded=0;orthogonalLoop=1;jettySize=auto;html=1;strokeWidth=3;strokeColor=#2D7600;fillColor=#60a917;startArrow=classic;startFill=1;labelBackgroundColor=default;fontColor=#000000;" parent="1" source="CQLGU1wXUIRpROZoo12C-23" target="CQLGU1wXUIRpROZoo12C-28" edge="1">
                        <mxGeometry relative="1" as="geometry"/>
                    </mxCell>
                </object>
                <object label="Resizing" hedietLinkedDataV1_path="../../../include/BOUNDING_BOX/BOUNDING_BOX.BAS" hedietLinkedDataV1_start_col_x-num="0" hedietLinkedDataV1_start_line_x-num="113" hedietLinkedDataV1_end_col_x-num="0" hedietLinkedDataV1_end_line_x-num="136" id="CQLGU1wXUIRpROZoo12C-23">
                    <mxCell style="rounded=0;whiteSpace=wrap;html=1;" parent="1" vertex="1">
                        <mxGeometry x="450" y="590" width="120" height="60" as="geometry"/>
                    </mxCell>
                </object>
                <object label="Resize" hedietLinkedDataV1_path="../../../include/BOUNDING_BOX/BOUNDING_BOX.BAS" hedietLinkedDataV1_start_col_x-num="0" hedietLinkedDataV1_start_line_x-num="116" hedietLinkedDataV1_end_col_x-num="0" hedietLinkedDataV1_end_line_x-num="118" id="CQLGU1wXUIRpROZoo12C-28">
                    <mxCell style="rounded=0;whiteSpace=wrap;html=1;shape=process;backgroundOutline=1;strokeColor=#007FFF;" parent="1" vertex="1">
                        <mxGeometry x="450" y="735" width="120" height="60" as="geometry"/>
                    </mxCell>
                </object>
                <mxCell id="CQLGU1wXUIRpROZoo12C-30" value="Move" style="rounded=0;whiteSpace=wrap;html=1;shape=process;backgroundOutline=1;strokeColor=#007FFF;" parent="1" vertex="1">
                    <mxGeometry x="210" y="735" width="120" height="60" as="geometry"/>
                </mxCell>
                <mxCell id="CQLGU1wXUIRpROZoo12C-31" value="Drag" style="rounded=0;orthogonalLoop=1;jettySize=auto;html=1;strokeWidth=3;strokeColor=#2D7600;fillColor=#60a917;startArrow=classic;startFill=1;labelBackgroundColor=default;fontColor=#000000;" parent="1" source="CQLGU1wXUIRpROZoo12C-32" target="CQLGU1wXUIRpROZoo12C-30" edge="1">
                    <mxGeometry relative="1" as="geometry">
                        <mxPoint x="760" y="543" as="sourcePoint"/>
                        <mxPoint x="760" y="620" as="targetPoint"/>
                    </mxGeometry>
                </mxCell>
                <mxCell id="CQLGU1wXUIRpROZoo12C-33" value="Drag" style="rounded=0;orthogonalLoop=1;jettySize=auto;html=1;strokeWidth=3;strokeColor=#2D7600;fillColor=#60a917;startArrow=classic;startFill=1;labelBackgroundColor=default;fontColor=#000000;" parent="1" source="CQLGU1wXUIRpROZoo12C-13" target="CQLGU1wXUIRpROZoo12C-32" edge="1">
                    <mxGeometry relative="1" as="geometry">
                        <mxPoint x="270" y="513" as="sourcePoint"/>
                        <mxPoint x="270" y="690" as="targetPoint"/>
                    </mxGeometry>
                </mxCell>
                <mxCell id="CQLGU1wXUIRpROZoo12C-32" value="Change Cursor" style="rounded=0;whiteSpace=wrap;html=1;shape=process;fixedSize=1;backgroundOutline=1;size=10;strokeColor=#007FFF;" parent="1" vertex="1">
                    <mxGeometry x="210" y="590" width="120" height="60" as="geometry"/>
                </mxCell>
                <mxCell id="CQLGU1wXUIRpROZoo12C-34" value="State Transition Event" style="text;html=1;strokeColor=none;fillColor=none;align=left;verticalAlign=middle;whiteSpace=wrap;rounded=0;fontSize=11;fontFamily=Helvetica;fontColor=#000000;labelBackgroundColor=#FFFF00;endArrow=classic;strokeWidth=3;startArrow=classic;startFill=1;spacingLeft=0;" parent="1" vertex="1">
                    <mxGeometry x="200" y="135" width="160" height="30" as="geometry"/>
                </mxCell>
                <mxCell id="CQLGU1wXUIRpROZoo12C-35" value="One Way State Transition" style="text;html=1;strokeColor=none;fillColor=none;align=left;verticalAlign=middle;whiteSpace=wrap;rounded=0;fontSize=11;fontFamily=Helvetica;fontColor=#000000;labelBackgroundColor=#B20000;endArrow=classic;strokeWidth=3;startArrow=classic;startFill=1;spacingLeft=0;" parent="1" vertex="1">
                    <mxGeometry x="200" y="165" width="160" height="30" as="geometry"/>
                </mxCell>
                <mxCell id="CQLGU1wXUIRpROZoo12C-36" value="Bi-directional State Transition" style="text;html=1;strokeColor=none;fillColor=none;align=left;verticalAlign=middle;whiteSpace=wrap;rounded=0;fontSize=11;fontFamily=Helvetica;fontColor=#000000;labelBackgroundColor=#2D7600;endArrow=classic;strokeWidth=3;startArrow=classic;startFill=1;spacingLeft=0;" parent="1" vertex="1">
                    <mxGeometry x="200" y="195" width="160" height="30" as="geometry"/>
                </mxCell>
                <mxCell id="CQLGU1wXUIRpROZoo12C-37" value="Operation" style="text;html=1;strokeColor=none;fillColor=none;align=left;verticalAlign=middle;whiteSpace=wrap;rounded=0;fontSize=11;fontFamily=Helvetica;fontColor=#000000;labelBackgroundColor=#007FFF;endArrow=classic;strokeWidth=3;startArrow=classic;startFill=1;spacingLeft=0;" parent="1" vertex="1">
                    <mxGeometry x="200" y="105" width="160" height="30" as="geometry"/>
                </mxCell>
            </root>
        </mxGraphModel>
    </diagram>
</mxfile>